<?xml version="1.0" encoding="UTF-8" standalone="no"?><!DOCTYPE svg PUBLIC "-//W3C//DTD SVG 1.1//EN" "http://www.w3.org/Graphics/SVG/1.1/DTD/svg11.dtd"><svg width="100%" height="100%" viewBox="0 0 6967 6967" version="1.1" xmlns="http://www.w3.org/2000/svg" xmlns:xlink="http://www.w3.org/1999/xlink" xml:space="preserve" xmlns:serif="http://www.serif.com/" style="fill-rule:evenodd;clip-rule:evenodd;stroke-linecap:round;stroke-linejoin:round;stroke-miterlimit:1.5;"><g><path d="M6003.461,3990.562c12.647,-2.139 25.64,-3.252 38.892,-3.252c128.018,0 231.952,103.934 231.952,231.952c0,128.018 -103.934,231.952 -231.952,231.952c-128.018,0 -231.952,-103.934 -231.952,-231.952c0,-67.623 29.001,-128.526 75.233,-170.94l-22.482,10.475l-305.651,-548.563c-43.591,2.563 -85.319,-19.079 -125.478,-61.13l-823.648,-1460.689l-1039.213,1788.862l-1052.082,-1801.731l-435.955,752.866c-227.452,79.17 -438.652,180.686 -638.649,297.607l1076.213,-1795.296l1064.952,1832.296l1076.213,-1808.166l1047.256,1840.34c66.243,149.263 68.458,264.278 -12.87,334.607l309.221,560.763Zm38.892,136.338c-50.976,0 -92.361,41.386 -92.361,92.361c0,50.976 41.386,92.361 92.361,92.361c50.976,0 92.361,-41.386 92.361,-92.361c0,-50.976 -41.386,-92.361 -92.361,-92.361Z" style="fill:url(#_Linear1);stroke:#0c0c0c;stroke-width:5.56px;"/><path d="M5127.374,4692.622l-6.624,3.792l-911.504,-1614.453l116.803,-175.316l946.319,1702.965l-11.939,6.836c15.854,-3.027 32.257,-4.465 49.032,-4.145c130.491,2.493 234.41,110.459 231.917,240.951c-2.493,130.491 -110.459,234.41 -240.951,231.917c-130.491,-2.493 -234.41,-110.459 -231.917,-240.951c1.111,-58.17 23.182,-111.06 58.864,-151.597Zm177.57,64.172c-50.744,0 -91.942,41.198 -91.942,91.942c0,50.744 41.198,91.942 91.942,91.942c50.744,0 91.942,-41.198 91.942,-91.942c-0,-50.744 -41.198,-91.942 -91.942,-91.942Z" style="fill:url(#_Linear2);stroke:#0c0c0c;stroke-width:5.56px;"/><path d="M5814.692,4938.831l-3.343,1.847l-1325.558,-2338.075l110.999,-184.999l1349.463,2448.013c13.247,-2.355 26.882,-3.583 40.801,-3.583c128.018,0 231.952,103.934 231.952,231.952c0,128.018 -103.934,231.952 -231.952,231.952c-128.018,0 -231.952,-103.934 -231.952,-231.952c0,-59.635 22.554,-114.043 59.589,-155.154Zm172.362,62.793c-50.976,0 -92.361,41.386 -92.361,92.361c0,50.976 41.386,92.361 92.361,92.361c50.976,0 92.361,-41.386 92.361,-92.361c0,-50.976 -41.386,-92.361 -92.361,-92.361Z" style="fill:url(#_Linear3);stroke:#0c0c0c;stroke-width:5.56px;"/><path d="M983.579,5467.284c55.876,-702.106 443.28,-1436.251 1496.363,-2234.726c-993.979,411.477 -1435.542,1034.517 -1641.679,1747.72c-81.39,-1189.828 465.392,-2000.905 2093.337,-2160.104c268.207,1062.688 -540.214,2269.608 -1489.124,2263.44c-251.243,-1.633 -300.5,268.353 -458.897,383.669" style="fill:url(#_Linear4);stroke:#000;stroke-width:5.56px;"/></g><defs><linearGradient id="_Linear1" x1="0" y1="0" x2="1" y2="0" gradientUnits="userSpaceOnUse" gradientTransform="matrix(4831.828167,0,0,3220.491234,1442.476067,2840.967339)"><stop offset="0" style="stop-color:#fff;stop-opacity:1"/><stop offset="0" style="stop-color:#1e7a3c;stop-opacity:1"/><stop offset="1" style="stop-color:#75ba3c;stop-opacity:1"/></linearGradient><linearGradient id="_Linear2" x1="0" y1="0" x2="1" y2="0" gradientUnits="userSpaceOnUse" gradientTransform="matrix(1365.473125,26.086747,-41.249028,2159.120817,4192.011801,3984.039634)"><stop offset="0" style="stop-color:#2c843c;stop-opacity:1"/><stop offset="0.16" style="stop-color:#4e9d3c;stop-opacity:1"/><stop offset="0.35" style="stop-color:#6ab13c;stop-opacity:1"/><stop offset="1" style="stop-color:#74b93c;stop-opacity:1"/></linearGradient><linearGradient id="_Linear3" x1="0" y1="0" x2="1" y2="0" gradientUnits="userSpaceOnUse" gradientTransform="matrix(1733.214909,0,0,2908.332675,4485.790596,3871.77018)"><stop offset="0" style="stop-color:#28813c;stop-opacity:1"/><stop offset="0.18" style="stop-color:#499a3c;stop-opacity:1"/><stop offset="0.38" style="stop-color:#68b03c;stop-opacity:1"/><stop offset="1" style="stop-color:#74b93c;stop-opacity:1"/></linearGradient><linearGradient id="_Linear4" x1="0" y1="0" x2="1" y2="0" gradientUnits="userSpaceOnUse" gradientTransform="matrix(2153.212884,0,0,2647.109287,830.472946,4143.729845)"><stop offset="0" style="stop-color:#26803c;stop-opacity:1"/><stop offset="1" style="stop-color:#74b93c;stop-opacity:1"/></linearGradient></defs></svg>